<?xml version="1.0" encoding="UTF-8" standalone="no"?>
<!-- Uploaded to: SVG Repo, www.svgrepo.com, Generator: SVG Repo Mixer Tools -->

<svg
   version="1.1"
   id="Capa_1"
   viewBox="0 0 54 52"
   xml:space="preserve"
   sodipodi:docname="window-svgrepo-com (1).svg"
   inkscape:version="1.4 (86a8ad7, 2024-10-11)"
   width="54"
   height="52"
   inkscape:export-filename="window-svgrepo-com (1).png"
   inkscape:export-xdpi="3780.9231"
   inkscape:export-ydpi="3780.9231"
   xmlns:inkscape="http://www.inkscape.org/namespaces/inkscape"
   xmlns:sodipodi="http://sodipodi.sourceforge.net/DTD/sodipodi-0.dtd"
   xmlns="http://www.w3.org/2000/svg"
   xmlns:svg="http://www.w3.org/2000/svg"><defs
   id="defs11" /><sodipodi:namedview
   id="namedview11"
   pagecolor="#ffffff"
   bordercolor="#000000"
   borderopacity="0.25"
   inkscape:showpageshadow="2"
   inkscape:pageopacity="0.0"
   inkscape:pagecheckerboard="0"
   inkscape:deskcolor="#d1d1d1"
   inkscape:zoom="10.784483"
   inkscape:cx="0.55635492"
   inkscape:cy="35.189448"
   inkscape:window-width="2560"
   inkscape:window-height="1511"
   inkscape:window-x="-9"
   inkscape:window-y="-9"
   inkscape:window-maximized="1"
   inkscape:current-layer="Capa_1" />
<rect
   x="4.6551733"
   y="31.035"
   style="fill:#2c94fc;fill-opacity:1;stroke-width:0.964902"
   width="44.689655"
   height="15.965"
   id="rect1" />

<rect
   x="0.93103546"
   y="0"
   style="fill:#bcb7b3;stroke-width:0.964902"
   width="52.137932"
   height="3"
   id="rect3" />
<rect
   x="49.344833"
   y="3"
   style="fill:#ede7e9;stroke-width:0.964902"
   width="2.7931035"
   height="44"
   id="rect4" />
<polygon
   style="fill:#dbd6d2"
   points="43.723,35 53,35 53,7 5,7 5,35 36.277,35 "
   id="polygon4"
   transform="matrix(0.9310345,0,0,1,8.9084169e-7,-4)" />
<rect
   y="47"
   style="fill:#fbf6f2;stroke-width:0.682289"
   width="54"
   height="2"
   id="rect5"
   x="9.5367432e-07" />
<rect
   x="0.93103546"
   y="49"
   style="fill:#bcb7b3;stroke-width:0.964902"
   width="52.137932"
   height="3"
   id="rect6" />
<rect
   x="1.8620698"
   y="3"
   style="fill:#ede7e9;stroke-width:0.964902"
   width="2.7931035"
   height="44"
   id="rect7" />
<rect
   x="7.4482765"
   y="6"
   style="fill:#1e82e6;fill-opacity:1;stroke-width:0.964902"
   width="39.103447"
   height="22"
   id="rect8" />




<g
   id="g11"
   transform="matrix(1.5096139,0,0,1.5096139,-23.949763,-23.951851)"><line
     style="fill:none;stroke:#23a24d;stroke-width:2;stroke-linecap:round;stroke-miterlimit:10"
     x1="39.995903"
     y1="37"
     x2="39.995903"
     y2="39"
     id="line8" /><path
     style="fill:#ebba16"
     d="m 43.995904,33 c 0,-0.552 -0.224,-1.052 -0.586,-1.414 0,-0.512 -0.195,-1.024 -0.586,-1.414 -0.391,-0.391 -0.902,-0.586 -1.414,-0.586 C 41.047904,29.224 40.547903,29 39.995903,29 c -0.552,0 -1.052,0.224 -1.414,0.586 -0.512,0 -1.024,0.195 -1.414,0.586 -0.39,0.391 -0.586,0.902 -0.586,1.414 -0.362,0.362 -0.586,0.862 -0.586,1.414 0,0.552 0.224,1.052 0.586,1.414 0,0.512 0.195,1.024 0.586,1.414 0.391,0.39 0.902,0.586 1.414,0.586 0.362,0.362 0.862,0.586 1.414,0.586 0.552,0 1.052001,-0.224 1.414001,-0.586 0.512,0 1.024,-0.195 1.414,-0.586 0.39,-0.391 0.586,-0.902 0.586,-1.414 0.362,-0.362 0.586,-0.862 0.586,-1.414 z"
     id="path8" /><circle
     style="fill:#dd352e"
     cx="39.995903"
     cy="33"
     r="1"
     id="circle8" /><polygon
     style="fill:#f7b563"
     points="37,51 35,46 45,46 43,51 "
     id="polygon8"
     transform="translate(-0.00409794,-4)" /><polygon
     style="fill:#bc8850"
     points="34,46 33,43 47,43 46,46 "
     id="polygon9"
     transform="translate(-0.00409794,-4)" /></g>
<polygon
   style="fill:#71acea;fill-opacity:1"
   points="8,29 8,32 11,32 29,10 24,10 "
   id="polygon10"
   transform="matrix(0.9310345,0,0,1,8.9084169e-7,-4)" />
<polygon
   style="fill:#a8d1fa;fill-opacity:1"
   points="15,32 17,32 20,32 38,10 33,10 "
   id="polygon11"
   transform="matrix(0.9310345,0,0,1,8.9084169e-7,-4)" />
</svg>
